TITLE ""
FILE "TOEIC LR Kinnojyukugo_13.mp3" MP3
  TRACK 01 AUDIO
    TITLE "TOEIC LR Kinnojyukugo_13_001"
    INDEX 01 00:00:00
  TRACK 02 AUDIO
    TITLE "TOEIC LR Kinnojyukugo_13_002"
    INDEX 01 00:00:08
  TRACK 03 AUDIO
    TITLE "TOEIC LR Kinnojyukugo_13_003"
    INDEX 01 00:01:37
  TRACK 04 AUDIO
    TITLE "TOEIC LR Kinnojyukugo_13_004"
    INDEX 01 00:01:74
  TRACK 05 AUDIO
    TITLE "TOEIC LR Kinnojyukugo_13_005"
    INDEX 01 00:03:16
  TRACK 06 AUDIO
    TITLE "TOEIC LR Kinnojyukugo_13_006"
    INDEX 01 00:03:60
  TRACK 07 AUDIO
    TITLE "TOEIC LR Kinnojyukugo_13_007"
    INDEX 01 00:07:08
  TRACK 08 AUDIO
    TITLE "TOEIC LR Kinnojyukugo_13_008"
    INDEX 01 00:07:46
  TRACK 09 AUDIO
    TITLE "TOEIC LR Kinnojyukugo_13_009"
    INDEX 01 00:10:60
  TRACK 10 AUDIO
    TITLE "TOEIC LR Kinnojyukugo_13_010"
    INDEX 01 00:11:08
  TRACK 11 AUDIO
    TITLE "TOEIC LR Kinnojyukugo_13_011"
    INDEX 01 00:14:20
  TRACK 12 AUDIO
    TITLE "TOEIC LR Kinnojyukugo_13_012"
    INDEX 01 00:15:20
  TRACK 13 AUDIO
    TITLE "TOEIC LR Kinnojyukugo_13_013"
    INDEX 01 00:16:47
  TRACK 14 AUDIO
    TITLE "TOEIC LR Kinnojyukugo_13_014"
    INDEX 01 00:17:09
  TRACK 15 AUDIO
    TITLE "TOEIC LR Kinnojyukugo_13_015"
    INDEX 01 00:18:65
  TRACK 16 AUDIO
    TITLE "TOEIC LR Kinnojyukugo_13_016"
    INDEX 01 00:19:37
  TRACK 17 AUDIO
    TITLE "TOEIC LR Kinnojyukugo_13_017"
    INDEX 01 00:23:05
  TRACK 18 AUDIO
    TITLE "TOEIC LR Kinnojyukugo_13_018"
    INDEX 01 00:23:45
  TRACK 19 AUDIO
    TITLE "TOEIC LR Kinnojyukugo_13_019"
    INDEX 01 00:26:43
  TRACK 20 AUDIO
    TITLE "TOEIC LR Kinnojyukugo_13_020"
    INDEX 01 00:26:70
  TRACK 21 AUDIO
    TITLE "TOEIC LR Kinnojyukugo_13_021"
    INDEX 01 00:29:71
  TRACK 22 AUDIO
    TITLE "TOEIC LR Kinnojyukugo_13_022"
    INDEX 01 00:30:70
  TRACK 23 AUDIO
    TITLE "TOEIC LR Kinnojyukugo_13_023"
    INDEX 01 00:32:22
  TRACK 24 AUDIO
    TITLE "TOEIC LR Kinnojyukugo_13_024"
    INDEX 01 00:32:59
  TRACK 25 AUDIO
    TITLE "TOEIC LR Kinnojyukugo_13_025"
    INDEX 01 00:34:05
  TRACK 26 AUDIO
    TITLE "TOEIC LR Kinnojyukugo_13_026"
    INDEX 01 00:34:44
  TRACK 27 AUDIO
    TITLE "TOEIC LR Kinnojyukugo_13_027"
    INDEX 01 00:37:06
  TRACK 28 AUDIO
    TITLE "TOEIC LR Kinnojyukugo_13_028"
    INDEX 01 00:37:45
  TRACK 29 AUDIO
    TITLE "TOEIC LR Kinnojyukugo_13_029"
    INDEX 01 00:40:06
  TRACK 30 AUDIO
    TITLE "TOEIC LR Kinnojyukugo_13_030"
    INDEX 01 00:40:29
  TRACK 31 AUDIO
    TITLE "TOEIC LR Kinnojyukugo_13_031"
    INDEX 01 00:42:66
  TRACK 32 AUDIO
    TITLE "TOEIC LR Kinnojyukugo_13_032"
    INDEX 01 00:43:65
  TRACK 33 AUDIO
    TITLE "TOEIC LR Kinnojyukugo_13_033"
    INDEX 01 00:45:03
  TRACK 34 AUDIO
    TITLE "TOEIC LR Kinnojyukugo_13_034"
    INDEX 01 00:45:40
  TRACK 35 AUDIO
    TITLE "TOEIC LR Kinnojyukugo_13_035"
    INDEX 01 00:46:48
  TRACK 36 AUDIO
    TITLE "TOEIC LR Kinnojyukugo_13_036"
    INDEX 01 00:47:10
  TRACK 37 AUDIO
    TITLE "TOEIC LR Kinnojyukugo_13_037"
    INDEX 01 00:48:52
  TRACK 38 AUDIO
    TITLE "TOEIC LR Kinnojyukugo_13_038"
    INDEX 01 00:49:15
  TRACK 39 AUDIO
    TITLE "TOEIC LR Kinnojyukugo_13_039"
    INDEX 01 00:51:12
  TRACK 40 AUDIO
    TITLE "TOEIC LR Kinnojyukugo_13_040"
    INDEX 01 00:51:47
  TRACK 41 AUDIO
    TITLE "TOEIC LR Kinnojyukugo_13_041"
    INDEX 01 00:53:40
  TRACK 42 AUDIO
    TITLE "TOEIC LR Kinnojyukugo_13_042"
    INDEX 01 00:54:39
  TRACK 43 AUDIO
    TITLE "TOEIC LR Kinnojyukugo_13_043"
    INDEX 01 00:55:58
  TRACK 44 AUDIO
    TITLE "TOEIC LR Kinnojyukugo_13_044"
    INDEX 01 00:56:23
  TRACK 45 AUDIO
    TITLE "TOEIC LR Kinnojyukugo_13_045"
    INDEX 01 00:57:36
  TRACK 46 AUDIO
    TITLE "TOEIC LR Kinnojyukugo_13_046"
    INDEX 01 00:57:75
  TRACK 47 AUDIO
    TITLE "TOEIC LR Kinnojyukugo_13_047"
    INDEX 01 01:00:69
  TRACK 48 AUDIO
    TITLE "TOEIC LR Kinnojyukugo_13_048"
    INDEX 01 01:01:35
  TRACK 49 AUDIO
    TITLE "TOEIC LR Kinnojyukugo_13_049"
    INDEX 01 01:04:08
  TRACK 50 AUDIO
    TITLE "TOEIC LR Kinnojyukugo_13_050"
    INDEX 01 01:04:32
  TRACK 51 AUDIO
    TITLE "TOEIC LR Kinnojyukugo_13_051"
    INDEX 01 01:07:05
  TRACK 52 AUDIO
    TITLE "TOEIC LR Kinnojyukugo_13_052"
    INDEX 01 01:08:06
  TRACK 53 AUDIO
    TITLE "TOEIC LR Kinnojyukugo_13_053"
    INDEX 01 01:09:17
  TRACK 54 AUDIO
    TITLE "TOEIC LR Kinnojyukugo_13_054"
    INDEX 01 01:09:57
  TRACK 55 AUDIO
    TITLE "TOEIC LR Kinnojyukugo_13_055"
    INDEX 01 01:11:04
  TRACK 56 AUDIO
    TITLE "TOEIC LR Kinnojyukugo_13_056"
    INDEX 01 01:11:44
  TRACK 57 AUDIO
    TITLE "TOEIC LR Kinnojyukugo_13_057"
    INDEX 01 01:13:60
  TRACK 58 AUDIO
    TITLE "TOEIC LR Kinnojyukugo_13_058"
    INDEX 01 01:14:24
  TRACK 59 AUDIO
    TITLE "TOEIC LR Kinnojyukugo_13_059"
    INDEX 01 01:16:25
  TRACK 60 AUDIO
    TITLE "TOEIC LR Kinnojyukugo_13_060"
    INDEX 01 01:16:53
  TRACK 61 AUDIO
    TITLE "TOEIC LR Kinnojyukugo_13_061"
    INDEX 01 01:18:54
  TRACK 62 AUDIO
    TITLE "TOEIC LR Kinnojyukugo_13_062"
    INDEX 01 01:19:55
  TRACK 63 AUDIO
    TITLE "TOEIC LR Kinnojyukugo_13_063"
    INDEX 01 01:21:11
  TRACK 64 AUDIO
    TITLE "TOEIC LR Kinnojyukugo_13_064"
    INDEX 01 01:21:46
  TRACK 65 AUDIO
    TITLE "TOEIC LR Kinnojyukugo_13_065"
    INDEX 01 01:24:01
  TRACK 66 AUDIO
    TITLE "TOEIC LR Kinnojyukugo_13_066"
    INDEX 01 01:24:44
  TRACK 67 AUDIO
    TITLE "TOEIC LR Kinnojyukugo_13_067"
    INDEX 01 01:26:35
  TRACK 68 AUDIO
    TITLE "TOEIC LR Kinnojyukugo_13_068"
    INDEX 01 01:26:75
  TRACK 69 AUDIO
    TITLE "TOEIC LR Kinnojyukugo_13_069"
    INDEX 01 01:29:53
  TRACK 70 AUDIO
    TITLE "TOEIC LR Kinnojyukugo_13_070"
    INDEX 01 01:30:04
  TRACK 71 AUDIO
    TITLE "TOEIC LR Kinnojyukugo_13_071"
    INDEX 01 01:32:60
  TRACK 72 AUDIO
    TITLE "TOEIC LR Kinnojyukugo_13_072"
    INDEX 01 01:33:59
  TRACK 73 AUDIO
    TITLE "TOEIC LR Kinnojyukugo_13_073"
    INDEX 01 01:34:74
  TRACK 74 AUDIO
    TITLE "TOEIC LR Kinnojyukugo_13_074"
    INDEX 01 01:35:38
  TRACK 75 AUDIO
    TITLE "TOEIC LR Kinnojyukugo_13_075"
    INDEX 01 01:38:07
  TRACK 76 AUDIO
    TITLE "TOEIC LR Kinnojyukugo_13_076"
    INDEX 01 01:38:50
  TRACK 77 AUDIO
    TITLE "TOEIC LR Kinnojyukugo_13_077"
    INDEX 01 01:40:63
  TRACK 78 AUDIO
    TITLE "TOEIC LR Kinnojyukugo_13_078"
    INDEX 01 01:41:25
  TRACK 79 AUDIO
    TITLE "TOEIC LR Kinnojyukugo_13_079"
    INDEX 01 01:43:44
  TRACK 80 AUDIO
    TITLE "TOEIC LR Kinnojyukugo_13_080"
    INDEX 01 01:43:69
  TRACK 81 AUDIO
    TITLE "TOEIC LR Kinnojyukugo_13_081"
    INDEX 01 01:46:15
  TRACK 82 AUDIO
    TITLE "TOEIC LR Kinnojyukugo_13_082"
    INDEX 01 01:47:16
  TRACK 83 AUDIO
    TITLE "TOEIC LR Kinnojyukugo_13_083"
    INDEX 01 01:48:21
  TRACK 84 AUDIO
    TITLE "TOEIC LR Kinnojyukugo_13_084"
    INDEX 01 01:48:64
  TRACK 85 AUDIO
    TITLE "TOEIC LR Kinnojyukugo_13_085"
    INDEX 01 01:51:33
  TRACK 86 AUDIO
    TITLE "TOEIC LR Kinnojyukugo_13_086"
    INDEX 01 01:51:73
  TRACK 87 AUDIO
    TITLE "TOEIC LR Kinnojyukugo_13_087"
    INDEX 01 01:54:55
  TRACK 88 AUDIO
    TITLE "TOEIC LR Kinnojyukugo_13_088"
    INDEX 01 01:55:19
  TRACK 89 AUDIO
    TITLE "TOEIC LR Kinnojyukugo_13_089"
    INDEX 01 01:57:28
  TRACK 90 AUDIO
    TITLE "TOEIC LR Kinnojyukugo_13_090"
    INDEX 01 01:57:58
  TRACK 91 AUDIO
    TITLE "TOEIC LR Kinnojyukugo_13_091"
    INDEX 01 01:59:68
  TRACK 92 AUDIO
    TITLE "TOEIC LR Kinnojyukugo_13_092"
    INDEX 01 02:00:70
  TRACK 93 AUDIO
    TITLE "TOEIC LR Kinnojyukugo_13_093"
    INDEX 01 02:02:65
  TRACK 94 AUDIO
    TITLE "TOEIC LR Kinnojyukugo_13_094"
    INDEX 01 02:03:27
  TRACK 95 AUDIO
    TITLE "TOEIC LR Kinnojyukugo_13_095"
    INDEX 01 02:05:30
  TRACK 96 AUDIO
    TITLE "TOEIC LR Kinnojyukugo_13_096"
    INDEX 01 02:05:69
  TRACK 97 AUDIO
    TITLE "TOEIC LR Kinnojyukugo_13_097"
    INDEX 01 02:08:59
  TRACK 98 AUDIO
    TITLE "TOEIC LR Kinnojyukugo_13_098"
    INDEX 01 02:09:22
  TRACK 99 AUDIO
    TITLE "TOEIC LR Kinnojyukugo_13_099"
    INDEX 01 02:12:06
  TRACK 100 AUDIO
    TITLE "TOEIC LR Kinnojyukugo_13_100"
    INDEX 01 02:12:30
  TRACK 101 AUDIO
    TITLE "TOEIC LR Kinnojyukugo_13_101"
    INDEX 01 02:15:14
  TRACK 102 AUDIO
    TITLE "TOEIC LR Kinnojyukugo_13_102"
    INDEX 01 02:16:12
  TRACK 103 AUDIO
    TITLE "TOEIC LR Kinnojyukugo_13_103"
    INDEX 01 02:17:31
  TRACK 104 AUDIO
    TITLE "TOEIC LR Kinnojyukugo_13_104"
    INDEX 01 02:17:70
  TRACK 105 AUDIO
    TITLE "TOEIC LR Kinnojyukugo_13_105"
    INDEX 01 02:22:10
  TRACK 106 AUDIO
    TITLE "TOEIC LR Kinnojyukugo_13_106"
    INDEX 01 02:22:50
  TRACK 107 AUDIO
    TITLE "TOEIC LR Kinnojyukugo_13_107"
    INDEX 01 02:25:36
  TRACK 108 AUDIO
    TITLE "TOEIC LR Kinnojyukugo_13_108"
    INDEX 01 02:26:08
  TRACK 109 AUDIO
    TITLE "TOEIC LR Kinnojyukugo_13_109"
    INDEX 01 02:28:21
  TRACK 110 AUDIO
    TITLE "TOEIC LR Kinnojyukugo_13_110"
    INDEX 01 02:28:46
  TRACK 111 AUDIO
    TITLE "TOEIC LR Kinnojyukugo_13_111"
    INDEX 01 02:30:59
  TRACK 112 AUDIO
    TITLE "TOEIC LR Kinnojyukugo_13_112"
    INDEX 01 02:31:56
  TRACK 113 AUDIO
    TITLE "TOEIC LR Kinnojyukugo_13_113"
    INDEX 01 02:33:40
  TRACK 114 AUDIO
    TITLE "TOEIC LR Kinnojyukugo_13_114"
    INDEX 01 02:34:04
  TRACK 115 AUDIO
    TITLE "TOEIC LR Kinnojyukugo_13_115"
    INDEX 01 02:35:50
  TRACK 116 AUDIO
    TITLE "TOEIC LR Kinnojyukugo_13_116"
    INDEX 01 02:36:12
  TRACK 117 AUDIO
    TITLE "TOEIC LR Kinnojyukugo_13_117"
    INDEX 01 02:40:06
  TRACK 118 AUDIO
    TITLE "TOEIC LR Kinnojyukugo_13_118"
    INDEX 01 02:40:46
  TRACK 119 AUDIO
    TITLE "TOEIC LR Kinnojyukugo_13_119"
    INDEX 01 02:43:30
  TRACK 120 AUDIO
    TITLE "TOEIC LR Kinnojyukugo_13_120"
    INDEX 01 02:43:54
  TRACK 121 AUDIO
    TITLE "TOEIC LR Kinnojyukugo_13_121"
    INDEX 01 02:46:40
  TRACK 122 AUDIO
    TITLE "TOEIC LR Kinnojyukugo_13_122"
    INDEX 01 02:47:40
  TRACK 123 AUDIO
    TITLE "TOEIC LR Kinnojyukugo_13_123"
    INDEX 01 02:48:73
  TRACK 124 AUDIO
    TITLE "TOEIC LR Kinnojyukugo_13_124"
    INDEX 01 02:49:29
  TRACK 125 AUDIO
    TITLE "TOEIC LR Kinnojyukugo_13_125"
    INDEX 01 02:52:29
  TRACK 126 AUDIO
    TITLE "TOEIC LR Kinnojyukugo_13_126"
    INDEX 01 02:52:68
  TRACK 127 AUDIO
    TITLE "TOEIC LR Kinnojyukugo_13_127"
    INDEX 01 02:55:47
  TRACK 128 AUDIO
    TITLE "TOEIC LR Kinnojyukugo_13_128"
    INDEX 01 02:56:09
  TRACK 129 AUDIO
    TITLE "TOEIC LR Kinnojyukugo_13_129"
    INDEX 01 02:58:75
  TRACK 130 AUDIO
    TITLE "TOEIC LR Kinnojyukugo_13_130"
    INDEX 01 02:59:27
  TRACK 131 AUDIO
    TITLE "TOEIC LR Kinnojyukugo_13_131"
    INDEX 01 03:02:20
  TRACK 132 AUDIO
    TITLE "TOEIC LR Kinnojyukugo_13_132"
    INDEX 01 03:03:19
  TRACK 133 AUDIO
    TITLE "TOEIC LR Kinnojyukugo_13_133"
    INDEX 01 03:04:40
  TRACK 134 AUDIO
    TITLE "TOEIC LR Kinnojyukugo_13_134"
    INDEX 01 03:05:06
  TRACK 135 AUDIO
    TITLE "TOEIC LR Kinnojyukugo_13_135"
    INDEX 01 03:06:57
  TRACK 136 AUDIO
    TITLE "TOEIC LR Kinnojyukugo_13_136"
    INDEX 01 03:07:25
  TRACK 137 AUDIO
    TITLE "TOEIC LR Kinnojyukugo_13_137"
    INDEX 01 03:10:47
  TRACK 138 AUDIO
    TITLE "TOEIC LR Kinnojyukugo_13_138"
    INDEX 01 03:11:09
  TRACK 139 AUDIO
    TITLE "TOEIC LR Kinnojyukugo_13_139"
    INDEX 01 03:13:63
  TRACK 140 AUDIO
    TITLE "TOEIC LR Kinnojyukugo_13_140"
    INDEX 01 03:14:13
  TRACK 141 AUDIO
    TITLE "TOEIC LR Kinnojyukugo_13_141"
    INDEX 01 03:16:65
  TRACK 142 AUDIO
    TITLE "TOEIC LR Kinnojyukugo_13_142"
    INDEX 01 03:17:64
  TRACK 143 AUDIO
    TITLE "TOEIC LR Kinnojyukugo_13_143"
    INDEX 01 03:19:53
  TRACK 144 AUDIO
    TITLE "TOEIC LR Kinnojyukugo_13_144"
    INDEX 01 03:20:18
  TRACK 145 AUDIO
    TITLE "TOEIC LR Kinnojyukugo_13_145"
    INDEX 01 03:24:21
  TRACK 146 AUDIO
    TITLE "TOEIC LR Kinnojyukugo_13_146"
    INDEX 01 03:24:61
  TRACK 147 AUDIO
    TITLE "TOEIC LR Kinnojyukugo_13_147"
    INDEX 01 03:27:45
  TRACK 148 AUDIO
    TITLE "TOEIC LR Kinnojyukugo_13_148"
    INDEX 01 03:28:09
  TRACK 149 AUDIO
    TITLE "TOEIC LR Kinnojyukugo_13_149"
    INDEX 01 03:30:24
  TRACK 150 AUDIO
    TITLE "TOEIC LR Kinnojyukugo_13_150"
    INDEX 01 03:30:49
  TRACK 151 AUDIO
    TITLE "TOEIC LR Kinnojyukugo_13_151"
    INDEX 01 03:32:64
  TRACK 152 AUDIO
    TITLE "TOEIC LR Kinnojyukugo_13_152"
    INDEX 01 03:33:65
  TRACK 153 AUDIO
    TITLE "TOEIC LR Kinnojyukugo_13_153"
    INDEX 01 03:35:45
  TRACK 154 AUDIO
    TITLE "TOEIC LR Kinnojyukugo_13_154"
    INDEX 01 03:36:07
  TRACK 155 AUDIO
    TITLE "TOEIC LR Kinnojyukugo_13_155"
    INDEX 01 03:37:34
  TRACK 156 AUDIO
    TITLE "TOEIC LR Kinnojyukugo_13_156"
    INDEX 01 03:37:73
  TRACK 157 AUDIO
    TITLE "TOEIC LR Kinnojyukugo_13_157"
    INDEX 01 03:41:14
  TRACK 158 AUDIO
    TITLE "TOEIC LR Kinnojyukugo_13_158"
    INDEX 01 03:41:55
  TRACK 159 AUDIO
    TITLE "TOEIC LR Kinnojyukugo_13_159"
    INDEX 01 03:45:23
  TRACK 160 AUDIO
    TITLE "TOEIC LR Kinnojyukugo_13_160"
    INDEX 01 03:45:47
  TRACK 161 AUDIO
    TITLE "TOEIC LR Kinnojyukugo_13_161"
    INDEX 01 03:49:15
  TRACK 162 AUDIO
    TITLE "TOEIC LR Kinnojyukugo_13_162"
    INDEX 01 03:50:15
  TRACK 163 AUDIO
    TITLE "TOEIC LR Kinnojyukugo_13_163"
    INDEX 01 03:52:16
  TRACK 164 AUDIO
    TITLE "TOEIC LR Kinnojyukugo_13_164"
    INDEX 01 03:52:47
  TRACK 165 AUDIO
    TITLE "TOEIC LR Kinnojyukugo_13_165"
    INDEX 01 03:57:19
  TRACK 166 AUDIO
    TITLE "TOEIC LR Kinnojyukugo_13_166"
    INDEX 01 03:57:58
  TRACK 167 AUDIO
    TITLE "TOEIC LR Kinnojyukugo_13_167"
    INDEX 01 04:00:39
  TRACK 168 AUDIO
    TITLE "TOEIC LR Kinnojyukugo_13_168"
    INDEX 01 04:00:74
  TRACK 169 AUDIO
    TITLE "TOEIC LR Kinnojyukugo_13_169"
    INDEX 01 04:03:45
  TRACK 170 AUDIO
    TITLE "TOEIC LR Kinnojyukugo_13_170"
    INDEX 01 04:03:70
  TRACK 171 AUDIO
    TITLE "TOEIC LR Kinnojyukugo_13_171"
    INDEX 01 04:06:39
  TRACK 172 AUDIO
    TITLE "TOEIC LR Kinnojyukugo_13_172"
    INDEX 01 04:07:41
  TRACK 173 AUDIO
    TITLE "TOEIC LR Kinnojyukugo_13_173"
    INDEX 01 04:10:06
  TRACK 174 AUDIO
    TITLE "TOEIC LR Kinnojyukugo_13_174"
    INDEX 01 04:10:43
  TRACK 175 AUDIO
    TITLE "TOEIC LR Kinnojyukugo_13_175"
    INDEX 01 04:12:36
  TRACK 176 AUDIO
    TITLE "TOEIC LR Kinnojyukugo_13_176"
    INDEX 01 04:12:75
  TRACK 177 AUDIO
    TITLE "TOEIC LR Kinnojyukugo_13_177"
    INDEX 01 04:14:64
  TRACK 178 AUDIO
    TITLE "TOEIC LR Kinnojyukugo_13_178"
    INDEX 01 04:15:28
  TRACK 179 AUDIO
    TITLE "TOEIC LR Kinnojyukugo_13_179"
    INDEX 01 04:18:05
  TRACK 180 AUDIO
    TITLE "TOEIC LR Kinnojyukugo_13_180"
    INDEX 01 04:18:29
  TRACK 181 AUDIO
    TITLE "TOEIC LR Kinnojyukugo_13_181"
    INDEX 01 04:21:06
  TRACK 182 AUDIO
    TITLE "TOEIC LR Kinnojyukugo_13_182"
    INDEX 01 04:22:07
  TRACK 183 AUDIO
    TITLE "TOEIC LR Kinnojyukugo_13_183"
    INDEX 01 04:24:24
  TRACK 184 AUDIO
    TITLE "TOEIC LR Kinnojyukugo_13_184"
    INDEX 01 04:24:61
  TRACK 185 AUDIO
    TITLE "TOEIC LR Kinnojyukugo_13_185"
    INDEX 01 04:26:64
  TRACK 186 AUDIO
    TITLE "TOEIC LR Kinnojyukugo_13_186"
    INDEX 01 04:27:28
  TRACK 187 AUDIO
    TITLE "TOEIC LR Kinnojyukugo_13_187"
    INDEX 01 04:30:52
  TRACK 188 AUDIO
    TITLE "TOEIC LR Kinnojyukugo_13_188"
    INDEX 01 04:31:18
  TRACK 189 AUDIO
    TITLE "TOEIC LR Kinnojyukugo_13_189"
    INDEX 01 04:34:16
  TRACK 190 AUDIO
    TITLE "TOEIC LR Kinnojyukugo_13_190"
    INDEX 01 04:34:42
  TRACK 191 AUDIO
    TITLE "TOEIC LR Kinnojyukugo_13_191"
    INDEX 01 04:37:40
  TRACK 192 AUDIO
    TITLE "TOEIC LR Kinnojyukugo_13_192"
    INDEX 01 04:38:41
  TRACK 193 AUDIO
    TITLE "TOEIC LR Kinnojyukugo_13_193"
    INDEX 01 04:39:62
  TRACK 194 AUDIO
    TITLE "TOEIC LR Kinnojyukugo_13_194"
    INDEX 01 04:40:26
  TRACK 195 AUDIO
    TITLE "TOEIC LR Kinnojyukugo_13_195"
    INDEX 01 04:42:66
  TRACK 196 AUDIO
    TITLE "TOEIC LR Kinnojyukugo_13_196"
    INDEX 01 04:43:27
  TRACK 197 AUDIO
    TITLE "TOEIC LR Kinnojyukugo_13_197"
    INDEX 01 04:47:66
  TRACK 198 AUDIO
    TITLE "TOEIC LR Kinnojyukugo_13_198"
    INDEX 01 04:48:32
  TRACK 199 AUDIO
    TITLE "TOEIC LR Kinnojyukugo_13_199"
    INDEX 01 04:51:60
  TRACK 200 AUDIO
    TITLE "TOEIC LR Kinnojyukugo_13_200"
    INDEX 01 04:52:12
  TRACK 201 AUDIO
    TITLE "TOEIC LR Kinnojyukugo_13_201"
    INDEX 01 04:55:40
  TRACK 202 AUDIO
    TITLE "TOEIC LR Kinnojyukugo_13_202"
    INDEX 01 04:56:43
  TRACK 203 AUDIO
    TITLE "TOEIC LR Kinnojyukugo_13_203"
    INDEX 01 04:58:07
  TRACK 204 AUDIO
    TITLE "TOEIC LR Kinnojyukugo_13_204"
    INDEX 01 04:58:46
  TRACK 205 AUDIO
    TITLE "TOEIC LR Kinnojyukugo_13_205"
    INDEX 01 05:00:13
  TRACK 206 AUDIO
    TITLE "TOEIC LR Kinnojyukugo_13_206"
    INDEX 01 05:00:53
  TRACK 207 AUDIO
    TITLE "TOEIC LR Kinnojyukugo_13_207"
    INDEX 01 05:03:63
  TRACK 208 AUDIO
    TITLE "TOEIC LR Kinnojyukugo_13_208"
    INDEX 01 05:04:25
  TRACK 209 AUDIO
    TITLE "TOEIC LR Kinnojyukugo_13_209"
    INDEX 01 05:07:19
  TRACK 210 AUDIO
    TITLE "TOEIC LR Kinnojyukugo_13_210"
    INDEX 01 05:07:45
  TRACK 211 AUDIO
    TITLE "TOEIC LR Kinnojyukugo_13_211"
    INDEX 01 05:10:39
  TRACK 212 AUDIO
    TITLE "TOEIC LR Kinnojyukugo_13_212"
    INDEX 01 05:11:39
  TRACK 213 AUDIO
    TITLE "TOEIC LR Kinnojyukugo_13_213"
    INDEX 01 05:12:52
  TRACK 214 AUDIO
    TITLE "TOEIC LR Kinnojyukugo_13_214"
    INDEX 01 05:13:14
  TRACK 215 AUDIO
    TITLE "TOEIC LR Kinnojyukugo_13_215"
    INDEX 01 05:14:45
  TRACK 216 AUDIO
    TITLE "TOEIC LR Kinnojyukugo_13_216"
    INDEX 01 05:15:07
  TRACK 217 AUDIO
    TITLE "TOEIC LR Kinnojyukugo_13_217"
    INDEX 01 05:18:29
  TRACK 218 AUDIO
    TITLE "TOEIC LR Kinnojyukugo_13_218"
    INDEX 01 05:18:68
  TRACK 219 AUDIO
    TITLE "TOEIC LR Kinnojyukugo_13_219"
    INDEX 01 05:21:37
  TRACK 220 AUDIO
    TITLE "TOEIC LR Kinnojyukugo_13_220"
    INDEX 01 05:21:63
  TRACK 221 AUDIO
    TITLE "TOEIC LR Kinnojyukugo_13_221"
    INDEX 01 05:24:32
  TRACK 222 AUDIO
    TITLE "TOEIC LR Kinnojyukugo_13_222"
    INDEX 01 05:25:33
  TRACK 223 AUDIO
    TITLE "TOEIC LR Kinnojyukugo_13_223"
    INDEX 01 05:26:46
  TRACK 224 AUDIO
    TITLE "TOEIC LR Kinnojyukugo_13_224"
    INDEX 01 05:27:16
  TRACK 225 AUDIO
    TITLE "TOEIC LR Kinnojyukugo_13_225"
    INDEX 01 05:29:50
  TRACK 226 AUDIO
    TITLE "TOEIC LR Kinnojyukugo_13_226"
    INDEX 01 05:30:15
  TRACK 227 AUDIO
    TITLE "TOEIC LR Kinnojyukugo_13_227"
    INDEX 01 05:33:74
  TRACK 228 AUDIO
    TITLE "TOEIC LR Kinnojyukugo_13_228"
    INDEX 01 05:34:34
  TRACK 229 AUDIO
    TITLE "TOEIC LR Kinnojyukugo_13_229"
    INDEX 01 05:37:07
  TRACK 230 AUDIO
    TITLE "TOEIC LR Kinnojyukugo_13_230"
    INDEX 01 05:37:28
  TRACK 231 AUDIO
    TITLE "TOEIC LR Kinnojyukugo_13_231"
    INDEX 01 05:40:03
  TRACK 232 AUDIO
    TITLE "TOEIC LR Kinnojyukugo_13_232"
    INDEX 01 05:41:05
  TRACK 233 AUDIO
    TITLE "TOEIC LR Kinnojyukugo_13_233"
    INDEX 01 05:41:75
  TRACK 234 AUDIO
    TITLE "TOEIC LR Kinnojyukugo_13_234"
    INDEX 01 05:42:53
  TRACK 235 AUDIO
    TITLE "TOEIC LR Kinnojyukugo_13_235"
    INDEX 01 05:43:60
  TRACK 236 AUDIO
    TITLE "TOEIC LR Kinnojyukugo_13_236"
    INDEX 01 05:44:24
  TRACK 237 AUDIO
    TITLE "TOEIC LR Kinnojyukugo_13_237"
    INDEX 01 05:46:18
  TRACK 238 AUDIO
    TITLE "TOEIC LR Kinnojyukugo_13_238"
    INDEX 01 05:46:59
  TRACK 239 AUDIO
    TITLE "TOEIC LR Kinnojyukugo_13_239"
    INDEX 01 05:48:34
  TRACK 240 AUDIO
    TITLE "TOEIC LR Kinnojyukugo_13_240"
    INDEX 01 05:48:60
  TRACK 241 AUDIO
    TITLE "TOEIC LR Kinnojyukugo_13_241"
    INDEX 01 05:50:37
  TRACK 242 AUDIO
    TITLE "TOEIC LR Kinnojyukugo_13_242"
    INDEX 01 05:51:36
  TRACK 243 AUDIO
    TITLE "TOEIC LR Kinnojyukugo_13_243"
    INDEX 01 05:53:31
  TRACK 244 AUDIO
    TITLE "TOEIC LR Kinnojyukugo_13_244"
    INDEX 01 05:53:70
  TRACK 245 AUDIO
    TITLE "TOEIC LR Kinnojyukugo_13_245"
    INDEX 01 05:55:62
  TRACK 246 AUDIO
    TITLE "TOEIC LR Kinnojyukugo_13_246"
    INDEX 01 05:56:26
  TRACK 247 AUDIO
    TITLE "TOEIC LR Kinnojyukugo_13_247"
    INDEX 01 05:58:27
  TRACK 248 AUDIO
    TITLE "TOEIC LR Kinnojyukugo_13_248"
    INDEX 01 05:58:64
  TRACK 249 AUDIO
    TITLE "TOEIC LR Kinnojyukugo_13_249"
    INDEX 01 06:01:07
  TRACK 250 AUDIO
    TITLE "TOEIC LR Kinnojyukugo_13_250"
    INDEX 01 06:01:33
  TRACK 251 AUDIO
    TITLE "TOEIC LR Kinnojyukugo_13_251"
    INDEX 01 06:03:49
  TRACK 252 AUDIO
    TITLE "TOEIC LR Kinnojyukugo_13_252"
    INDEX 01 06:04:49
  TRACK 253 AUDIO
    TITLE "TOEIC LR Kinnojyukugo_13_253"
    INDEX 01 06:06:28
  TRACK 254 AUDIO
    TITLE "TOEIC LR Kinnojyukugo_13_254"
    INDEX 01 06:06:65
  TRACK 255 AUDIO
    TITLE "TOEIC LR Kinnojyukugo_13_255"
    INDEX 01 06:09:17
  TRACK 256 AUDIO
    TITLE "TOEIC LR Kinnojyukugo_13_256"
    INDEX 01 06:09:54
  TRACK 257 AUDIO
    TITLE "TOEIC LR Kinnojyukugo_13_257"
    INDEX 01 06:12:27
  TRACK 258 AUDIO
    TITLE "TOEIC LR Kinnojyukugo_13_258"
    INDEX 01 06:12:66
  TRACK 259 AUDIO
    TITLE "TOEIC LR Kinnojyukugo_13_259"
    INDEX 01 06:15:56
  TRACK 260 AUDIO
    TITLE "TOEIC LR Kinnojyukugo_13_260"
    INDEX 01 06:16:07
  TRACK 261 AUDIO
    TITLE "TOEIC LR Kinnojyukugo_13_261"
    INDEX 01 06:18:74
  TRACK 262 AUDIO
    TITLE "TOEIC LR Kinnojyukugo_13_262"
    INDEX 01 06:19:74
  TRACK 263 AUDIO
    TITLE "TOEIC LR Kinnojyukugo_13_263"
    INDEX 01 06:21:18
  TRACK 264 AUDIO
    TITLE "TOEIC LR Kinnojyukugo_13_264"
    INDEX 01 06:21:55
  TRACK 265 AUDIO
    TITLE "TOEIC LR Kinnojyukugo_13_265"
    INDEX 01 06:25:72
  TRACK 266 AUDIO
    TITLE "TOEIC LR Kinnojyukugo_13_266"
    INDEX 01 06:26:43
  TRACK 267 AUDIO
    TITLE "TOEIC LR Kinnojyukugo_13_267"
    INDEX 01 06:29:45
  TRACK 268 AUDIO
    TITLE "TOEIC LR Kinnojyukugo_13_268"
    INDEX 01 06:30:09
  TRACK 269 AUDIO
    TITLE "TOEIC LR Kinnojyukugo_13_269"
    INDEX 01 06:33:39
  TRACK 270 AUDIO
    TITLE "TOEIC LR Kinnojyukugo_13_270"
    INDEX 01 06:33:64
  TRACK 271 AUDIO
    TITLE "TOEIC LR Kinnojyukugo_13_271"
    INDEX 01 06:37:19
  TRACK 272 AUDIO
    TITLE "TOEIC LR Kinnojyukugo_13_272"
    INDEX 01 06:38:20
  TRACK 273 AUDIO
    TITLE "TOEIC LR Kinnojyukugo_13_273"
    INDEX 01 06:39:55
  TRACK 274 AUDIO
    TITLE "TOEIC LR Kinnojyukugo_13_274"
    INDEX 01 06:40:19
  TRACK 275 AUDIO
    TITLE "TOEIC LR Kinnojyukugo_13_275"
    INDEX 01 06:41:58
  TRACK 276 AUDIO
    TITLE "TOEIC LR Kinnojyukugo_13_276"
    INDEX 01 06:42:24
  TRACK 277 AUDIO
    TITLE "TOEIC LR Kinnojyukugo_13_277"
    INDEX 01 06:44:58
  TRACK 278 AUDIO
    TITLE "TOEIC LR Kinnojyukugo_13_278"
    INDEX 01 06:45:20
  TRACK 279 AUDIO
    TITLE "TOEIC LR Kinnojyukugo_13_279"
    INDEX 01 06:48:07
  TRACK 280 AUDIO
    TITLE "TOEIC LR Kinnojyukugo_13_280"
    INDEX 01 06:48:34
  TRACK 281 AUDIO
    TITLE "TOEIC LR Kinnojyukugo_13_281"
    INDEX 01 06:51:23
  TRACK 282 AUDIO
    TITLE "TOEIC LR Kinnojyukugo_13_282"
    INDEX 01 06:52:24
  TRACK 283 AUDIO
    TITLE "TOEIC LR Kinnojyukugo_13_283"
    INDEX 01 06:53:41
  TRACK 284 AUDIO
    TITLE "TOEIC LR Kinnojyukugo_13_284"
    INDEX 01 06:54:06
  TRACK 285 AUDIO
    TITLE "TOEIC LR Kinnojyukugo_13_285"
    INDEX 01 06:57:18
  TRACK 286 AUDIO
    TITLE "TOEIC LR Kinnojyukugo_13_286"
    INDEX 01 06:57:61
  TRACK 287 AUDIO
    TITLE "TOEIC LR Kinnojyukugo_13_287"
    INDEX 01 07:00:24
  TRACK 288 AUDIO
    TITLE "TOEIC LR Kinnojyukugo_13_288"
    INDEX 01 07:00:63
  TRACK 289 AUDIO
    TITLE "TOEIC LR Kinnojyukugo_13_289"
    INDEX 01 07:03:46
  TRACK 290 AUDIO
    TITLE "TOEIC LR Kinnojyukugo_13_290"
    INDEX 01 07:03:69
  TRACK 291 AUDIO
    TITLE "TOEIC LR Kinnojyukugo_13_291"
    INDEX 01 07:06:54
  TRACK 292 AUDIO
    TITLE "TOEIC LR Kinnojyukugo_13_292"
    INDEX 01 07:07:53
  TRACK 293 AUDIO
    TITLE "TOEIC LR Kinnojyukugo_13_293"
    INDEX 01 07:09:15
  TRACK 294 AUDIO
    TITLE "TOEIC LR Kinnojyukugo_13_294"
    INDEX 01 07:09:54
  TRACK 295 AUDIO
    TITLE "TOEIC LR Kinnojyukugo_13_295"
    INDEX 01 07:11:69
  TRACK 296 AUDIO
    TITLE "TOEIC LR Kinnojyukugo_13_296"
    INDEX 01 07:12:39
  TRACK 297 AUDIO
    TITLE "TOEIC LR Kinnojyukugo_13_297"
    INDEX 01 07:15:51
  TRACK 298 AUDIO
    TITLE "TOEIC LR Kinnojyukugo_13_298"
    INDEX 01 07:16:17
  TRACK 299 AUDIO
    TITLE "TOEIC LR Kinnojyukugo_13_299"
    INDEX 01 07:18:63
  TRACK 300 AUDIO
    TITLE "TOEIC LR Kinnojyukugo_13_300"
    INDEX 01 07:19:13
  TRACK 301 AUDIO
    TITLE "TOEIC LR Kinnojyukugo_13_301"
    INDEX 01 07:21:61
